Coordinates
version=1
nRows=17
nColumns=40
inDegrees=yes

Units are S.I. units (second, meters, Newtons, ...)
Angles are in degrees.

endheader
time	pelvis_tilt	pelvis_list	pelvis_rotation	pelvis_tx	pelvis_ty	pelvis_tz	hip_flexion_r	hip_adduction_r	hip_rotation_r	knee_angle_r	knee_angle_r_beta	ankle_angle_r	subtalar_angle_r	mtp_angle_r	hip_flexion_l	hip_adduction_l	hip_rotation_l	knee_angle_l	knee_angle_l_beta	ankle_angle_l	subtalar_angle_l	mtp_angle_l	lumbar_extension	lumbar_bending	lumbar_rotation	arm_flex_r	arm_add_r	arm_rot_r	elbow_flex_r	pro_sup_r	wrist_flex_r	wrist_dev_r	arm_flex_l	arm_add_l	arm_rot_l	elbow_flex_l	pro_sup_l	wrist_flex_l	wrist_dev_l
     13.81500000	     -4.41669105	     -5.82917787	      6.09620622	      1.11270406	      0.92287108	      0.43372429	      2.51815333	     -0.69898309	    -16.90811081	     22.96881341	     22.96881341	     15.77123024	     -1.06310120	     -6.15067091	     26.50274555	     -6.46313581	      0.01743446	     28.28678310	     28.28678310	      9.40399119	    -14.16930139	      6.44949258	     -9.30192253	      4.86755985	      4.32990829	     27.49865743	    -15.83380377	     -5.53413360	     80.24829898	     45.22915272	      0.00000000	      0.00000000	      0.41559867	     -8.84241759	     -9.41711934	     28.94912812	     46.43983085	      0.00000000	      0.00000000
     13.82857143	     -4.44138065	     -5.92318779	      5.77063088	      1.11309473	      0.92358416	      0.43047245	      3.53294288	     -1.20502674	    -16.22616411	     25.36760092	     25.36760092	     14.17759546	     -2.53779331	     -9.27919084	     25.99819822	     -6.53702529	     -0.39208386	     28.27180753	     28.27180753	     10.22791660	    -13.79504761	      6.97711336	     -9.11409225	      4.95250557	      3.29455028	     28.22040502	    -14.51636271	     -5.00634269	     73.54240720	     45.43256888	      0.00000000	      0.00000000	     -0.11926408	     -9.25250484	     -8.59004865	     31.44309682	     46.28929949	      0.00000000	      0.00000000
     13.84214286	     -4.40664938	     -5.91923667	      5.38648968	      1.11339588	      0.92430013	      0.42732487	      4.78672954	     -1.88796299	    -15.51603743	     28.33032769	     28.33032769	     12.70981083	     -3.98751448	    -11.70440020	     25.36470502	     -6.58486288	     -1.05370207	     28.16616540	     28.16616540	     10.71508554	    -13.34189698	      6.67154379	     -9.14491165	      4.94509513	      3.14407043	     27.57429003	    -14.45628836	     -3.97447209	     69.85361639	     45.50944414	      0.00000000	      0.00000000	      0.06630549	     -9.57300869	     -7.99120239	     33.64579065	     46.20759162	      0.00000000	      0.00000000
     13.85571429	     -4.45531093	     -5.88378288	      4.96188828	      1.11352247	      0.92484511	      0.42434319	      6.42421503	     -2.68776877	    -14.84010775	     31.83254243	     31.83254243	     11.71351920	     -4.93806596	    -12.45718444	     24.77526462	     -6.59355266	     -1.73064130	     27.97633877	     27.97633877	     11.16477046	    -12.91833277	      6.35483683	     -9.10676972	      4.91659765	      3.56188781	     26.06435478	    -14.71131976	     -3.72731024	     67.70307859	     45.56427063	      0.00000000	      0.00000000	      1.08120012	     -9.67958770	     -7.91996099	     34.63125719	     46.21531479	      0.00000000	      0.00000000
     13.86928571	     -4.34824319	     -5.92591607	      4.54432956	      1.11359870	      0.92558622	      0.42162608	      7.96294213	     -3.21005579	    -13.80120498	     35.23085727	     35.23085727	     10.10532772	     -6.72298231	    -13.66919417	     24.08953527	     -6.78065048	     -2.58441718	     27.88791390	     27.88791390	     11.56475174	    -12.17725993	      5.61577925	     -9.22491366	      4.93676390	      3.34269450	     25.80040058	    -14.30766067	     -3.16197422	     62.80411972	     45.69734565	      0.00000000	      0.00000000	      1.50848364	    -10.10608203	     -7.27844125	     36.50055994	     46.14998379	      0.00000000	      0.00000000
     13.88285714	     -4.28014909	     -5.76492070	      4.16151609	      1.11355356	      0.92619565	      0.41887596	      9.70137402	     -4.08895055	    -13.09338937	     38.92768304	     38.92768304	      8.86788007	     -7.55050878	    -13.98540144	     23.37218370	     -6.66268186	     -3.29409981	     27.68047853	     27.68047853	     11.95991485	    -11.73859993	      5.34188089	     -9.38033937	      4.78051400	      3.33534226	     24.23481418	    -14.22315784	     -2.81974733	     61.19234686	     45.72984375	      0.00000000	      0.00000000	      2.58274410	    -10.39841842	     -7.25959010	     37.35353475	     46.16665237	      0.00000000	      0.00000000
     13.89642857	     -4.26669499	     -5.83989655	      3.74341643	      1.11347368	      0.92667657	      0.41668113	     11.57317682	     -4.44901780	    -11.99283391	     42.48249985	     42.48249985	      7.61960229	     -8.92490604	    -13.32970059	     22.76783921	     -6.94326983	     -4.31738186	     27.52335947	     27.52335947	     12.35348078	    -10.64430226	      4.34470320	     -9.28522160	      4.79675003	      2.74381762	     24.33338462	    -13.62041380	     -1.65199225	     55.13321944	     45.87116327	      0.00000000	      0.00000000	      2.64222646	    -11.18492706	     -6.21219733	     39.70415123	     46.07242851	      0.00000000	      0.00000000
     13.91000000	     -4.15222439	     -5.67667268	      3.38540507	      1.11327110	      0.92725129	      0.41437496	     13.34067521	     -5.14625240	    -11.18225727	     45.93693377	     45.93693377	      6.36163686	     -9.72892763	    -13.17457407	     22.04032224	     -6.82330794	     -4.97086898	     27.34341849	     27.34341849	     12.73689574	    -10.23970043	      4.10858402	     -9.50401031	      4.58851327	      2.69770801	     22.59184138	    -13.58357349	     -1.33174848	     53.72242980	     45.89562370	      0.00000000	      0.00000000	      3.85308664	    -11.59768843	     -6.26883690	     40.50154056	     46.10082172	      0.00000000	      0.00000000
     13.92357143	     -4.11419494	     -5.68863803	      3.03189310	      1.11305813	      0.92776930	      0.41243416	     15.17397986	     -5.46530020	    -10.24373491	     49.09550653	     49.09550653	      5.29534877	    -10.69268666	    -12.25684180	     21.40388310	     -6.97012695	     -5.81498298	     27.12835241	     27.12835241	     13.12420875	     -9.40528601	      3.70937592	     -9.51800304	      4.58837040	      2.94830964	     20.87867703	    -13.81120817	     -0.89839476	     51.25710322	     45.95082708	      0.00000000	      0.00000000	      5.06900639	    -11.91043991	     -6.11937530	     41.54093166	     46.11021793	      0.00000000	      0.00000000
     13.93714286	     -3.92930071	     -5.76978943	      2.70424274	      1.11289911	      0.92845450	      0.41080530	     16.84892729	     -5.61300057	     -9.37542301	     52.11285751	     52.11285751	      5.49187820	    -10.81787565	     -8.20976369	     20.67206496	     -7.29620191	     -6.88025558	     27.05536740	     27.05536740	     13.65154944	     -8.03827390	      2.87482033	     -9.63915802	      4.62169514	      2.37784700	     20.67427673	    -13.33668498	      0.27893563	     45.70526819	     46.07223685	      0.00000000	      0.00000000	      5.77530235	    -12.86234655	     -4.76675382	     42.81359444	     46.00915572	      0.00000000	      0.00000000
     13.95071429	     -3.82874188	     -5.71518208	      2.43885904	      1.11262682	      0.92913939	      0.40908491	     18.44696926	     -5.91562520	     -8.67285052	     54.52294470	     54.52294470	      4.88667989	    -11.28505494	     -7.12194445	     19.94074089	     -7.25467916	     -7.38213057	     26.74774701	     26.74774701	     13.97113155	     -7.63720749	      2.71371340	     -9.75863904	      4.54613760	      2.35754216	     18.81511636	    -13.41825903	      0.70810614	     43.73398388	     46.10337965	      0.00000000	      0.00000000	      7.01442117	    -13.31828884	     -4.65266884	     43.74051909	     46.02943743	      0.00000000	      0.00000000
     13.96428571	     -3.66476132	     -5.65263252	      2.22160018	      1.11240151	      0.92989132	      0.40756707	     19.85746004	     -6.17998820	     -8.09691612	     56.47733474	     56.47733474	      4.38932740	    -11.74255266	     -6.56738407	     19.14754312	     -7.20690401	     -7.88383148	     26.43960821	     26.43960821	     14.29888806	     -7.22385593	      2.56672854	     -9.90912588	      4.44113194	      1.98271962	     16.97932249	    -13.29434909	      1.01454932	     42.27536217	     46.12695738	      0.00000000	      0.00000000	      8.19412257	    -13.90944448	     -4.63019361	     44.29391046	     46.04966997	      0.00000000	      0.00000000
     13.97785714	     -3.48709913	     -5.70788406	      1.97002377	      1.11217823	      0.93081264	      0.40628584	     21.12684349	     -6.20723658	     -7.52792669	     57.91220123	     57.91220123	      4.25973498	    -12.07209735	     -5.39853374	     18.31546767	     -7.32728411	     -8.47671269	     26.08277796	     26.08277796	     14.59251931	     -6.59888015	      2.35652517	    -10.08441299	      4.51089245	      2.03673751	     15.17863868	    -13.46019030	      1.47607295	     39.90835970	     46.17400804	      0.00000000	      0.00000000	      9.61671103	    -14.29782383	     -4.29745706	     44.93852667	     46.04588605	      0.00000000	      0.00000000
     13.99142857	     -3.31499205	     -5.77161955	      1.82302717	      1.11191234	      0.93177129	      0.40510348	     22.24001824	     -6.24468488	     -7.17357716	     58.80468367	     58.80468367	      4.13700892	    -12.27541964	     -4.82915175	     17.51340761	     -7.37343965	     -8.77835842	     25.70421024	     25.70421024	     14.85639531	     -6.29669406	      2.27056192	    -10.27569901	      4.53008214	      1.54030635	     13.34654719	    -13.35052399	      1.78068829	     38.35671320	     46.20086741	      0.00000000	      0.00000000	     10.80500258	    -14.88841707	     -4.16645273	     45.35143467	     46.05461659	      0.00000000	      0.00000000
     14.00500000	     -3.14029488	     -5.89655566	      1.62643654	      1.11164394	      0.93276432	      0.40421001	     23.31531027	     -6.14212791	     -6.81332720	     59.37636061	     59.37636061	      4.92061904	    -11.95760494	     -1.98735898	     16.68054049	     -7.53124141	     -9.19556175	     25.28694743	     25.28694743	     15.03064636	     -5.83670681	      1.91675422	    -10.34949796	      4.63342489	      1.32984062	     12.37363103	    -13.24119136	      2.73244331	     34.04288039	     46.28376127	      0.00000000	      0.00000000	     12.31672099	    -15.69412352	     -2.34470176	     45.14070586	     45.93168330	      0.00000000	      0.00000000
     14.01857143	     -3.01377040	     -6.01633216	      1.49181900	      1.11130364	      0.93367137	      0.40331502	     24.19129189	     -6.06698405	     -6.63446197	     59.20420328	     59.20420328	      4.88361071	    -12.01072531	     -1.90229745	     15.94574626	     -7.59263411	     -9.29731787	     24.90195611	     24.90195611	     15.22174253	     -5.81271737	      1.94889223	    -10.47803758	      4.75827742	      0.65022756	     10.50053396	    -13.13471883	      2.83396191	     33.26176324	     46.29241215	      0.00000000	      0.00000000	     13.27970537	    -16.37841290	     -2.50726563	     45.57910344	     45.96509019	      0.00000000	      0.00000000
     14.03214286	     -2.85937037	     -6.02283978	      1.24495965	      1.11095737	      0.93477126	      0.40266572	     24.93735376	     -5.96879591	     -6.26852474	     58.54699878	     58.54699878	      4.88525939	    -12.12460358	     -1.67173330	     14.95340757	     -7.51603098	     -9.54531210	     24.13615199	     24.13615199	     15.30735306	     -5.77374200	      2.04911227	    -10.69844331	      4.72874199	      0.84482475	      8.38339649	    -13.33804413	      3.04143578	     31.92259647	     46.31247841	      0.00000000	      0.00000000	     14.63865289	    -16.53821643	     -2.50345485	     46.45053731	     45.99614836	      0.00000000	      0.00000000
